<?xml version="1.0" standalone="no"?>
<!DOCTYPE svg PUBLIC "-//W3C//DTD SVG 20010904//EN"
 "http://www.w3.org/TR/2001/REC-SVG-20010904/DTD/svg10.dtd">
<svg version="1.0" xmlns="http://www.w3.org/2000/svg"
 width="500.000000pt" height="500.000000pt" viewBox="0 0 500.000000 500.000000"
 preserveAspectRatio="xMidYMid meet">

<g transform="translate(0.000000,500.000000) scale(0.100000,-0.100000)"
fill="#000000" stroke="none">
<path d="M2245 4140 c-131 -23 -209 -42 -216 -53 -3 -5 -9 -8 -13 -7 -21 5
-115 -28 -246 -88 -39 -18 -166 -91 -223 -130 -21 -14 -36 -31 -33 -38 3 -7 0
-11 -7 -8 -28 11 -244 -186 -230 -210 3 -6 3 -8 -2 -4 -7 7 -85 -69 -85 -83 0
-4 -14 -22 -31 -40 -16 -19 -34 -43 -40 -54 -5 -11 -18 -33 -29 -50 -44 -69
-100 -171 -100 -185 0 -9 -4 -20 -9 -25 -13 -14 -82 -215 -74 -215 4 0 2 -5
-5 -12 -7 -7 -12 -23 -12 -36 0 -13 -4 -31 -9 -40 -5 -9 -12 -39 -15 -67 -4
-27 -8 -63 -11 -80 -7 -47 -8 -412 -1 -423 3 -6 8 -34 11 -62 6 -60 38 -184
64 -250 10 -25 35 -87 56 -138 36 -91 136 -270 159 -284 6 -4 7 -8 1 -8 -6 0
-6 -3 0 -8 6 -4 26 -27 45 -52 19 -25 46 -57 60 -71 14 -15 31 -36 39 -47 8
-12 18 -19 23 -16 4 3 8 0 8 -6 0 -21 147 -150 172 -150 6 0 9 -3 5 -6 -6 -7
89 -80 135 -105 127 -68 242 -121 262 -123 13 0 22 -4 20 -8 -9 -14 249 -82
371 -98 93 -12 410 -9 475 4 147 31 314 84 447 142 17 8 34 14 37 14 6 0 132
77 151 93 6 4 38 25 72 47 34 22 68 49 76 60 7 11 16 17 19 14 4 -3 52 40 108
95 56 56 99 101 96 101 -7 0 22 37 47 59 9 8 17 21 17 27 0 7 4 14 9 16 17 6
111 170 105 180 -5 7 -2 8 6 3 10 -6 12 -4 6 11 -4 10 -4 15 0 12 7 -7 76 128
88 172 4 14 11 34 16 45 10 22 50 157 56 189 7 36 13 70 21 106 5 19 8 134 8
255 0 281 -20 399 -102 600 -31 76 -96 209 -126 256 -68 110 -98 149 -109 143
-7 -4 -8 -3 -4 5 17 27 -249 301 -292 301 -6 0 -12 3 -14 8 -7 16 -97 81 -163
118 -71 39 -192 99 -210 103 -5 2 -26 9 -45 17 -19 8 -51 19 -70 24 -19 5 -69
18 -109 30 -179 51 -461 63 -656 30z m395 -84 c142 -9 349 -60 486 -121 31
-14 61 -22 67 -18 5 3 7 2 4 -4 -3 -5 11 -18 31 -27 38 -18 133 -76 142 -86 3
-3 21 -17 40 -30 49 -33 146 -116 202 -173 29 -29 52 -46 59 -41 8 4 9 3 5 -5
-7 -10 8 -35 56 -96 5 -5 18 -22 29 -38 11 -15 25 -24 31 -21 7 4 8 2 4 -5 -4
-6 -2 -18 4 -26 7 -8 9 -15 4 -15 -5 0 -4 -4 2 -8 18 -11 86 -137 142 -262 34
-77 90 -288 100 -380 4 -36 6 -144 6 -240 -1 -149 -5 -193 -28 -295 -14 -66
-31 -131 -37 -145 -6 -14 -10 -26 -10 -28 1 -1 -6 -16 -14 -32 -9 -17 -13 -30
-11 -30 10 0 -55 -130 -108 -215 -31 -49 -62 -101 -69 -115 -12 -26 -22 -39
-96 -124 -60 -70 -179 -184 -186 -178 -3 3 -5 1 -5 -5 0 -9 -114 -95 -169
-128 -61 -36 -79 -50 -74 -59 3 -5 1 -6 -6 -2 -6 4 -42 -7 -79 -24 -135 -64
-325 -118 -482 -135 -228 -26 -518 4 -697 72 -38 14 -78 26 -90 27 -12 1 -21
5 -20 10 1 5 -9 12 -23 16 -39 11 -204 101 -220 120 -3 4 -36 28 -75 56 -79
56 -239 215 -303 301 -23 32 -52 70 -63 86 -11 15 -25 24 -31 21 -6 -4 -8 -3
-5 3 7 10 -71 176 -85 181 -4 2 -5 8 -2 13 3 6 1 15 -4 22 -5 7 -24 55 -42
107 -17 52 -34 102 -38 110 -3 8 -6 22 -8 30 -1 8 -7 42 -13 75 -24 131 -29
186 -26 325 2 134 25 332 44 383 5 12 9 25 10 29 18 75 162 393 173 382 3 -2
14 18 27 45 12 27 28 52 36 55 8 3 15 15 15 26 0 11 6 20 14 20 7 0 25 18 40
39 37 53 248 257 274 266 12 3 22 10 22 15 0 7 178 114 230 137 127 56 238 94
345 118 71 15 291 33 355 28 19 -1 73 -5 120 -7z"/>
<path d="M2388 3958 c-60 -4 -138 -15 -175 -24 -38 -8 -84 -19 -103 -23 -19
-5 -55 -16 -80 -25 -47 -18 -49 -18 -92 -31 -16 -4 -28 -11 -28 -16 0 -5 -7
-9 -16 -9 -9 0 -63 -27 -121 -61 -112 -64 -119 -69 -164 -111 -17 -15 -33 -29
-37 -30 -4 -2 -6 -7 -4 -11 1 -5 -2 -6 -8 -2 -12 7 -155 -129 -155 -148 0 -7
-5 -12 -12 -12 -21 0 -26 -14 -12 -32 12 -16 12 -17 -2 -6 -13 11 -20 7 -45
-25 -70 -88 -204 -327 -204 -362 0 -7 -6 -24 -14 -38 -84 -154 -112 -573 -54
-797 6 -22 12 -49 14 -61 2 -12 11 -41 20 -65 8 -24 18 -54 20 -66 11 -54 111
-243 186 -351 60 -86 174 -206 290 -305 79 -67 251 -168 339 -197 40 -14 76
-28 79 -31 3 -3 16 -9 30 -13 238 -66 311 -77 492 -72 92 3 181 11 223 21 130
30 220 58 283 86 34 16 67 29 72 29 5 0 24 9 42 19 18 11 56 33 85 48 52 28
86 52 127 88 13 11 34 27 46 35 13 8 34 25 46 38 11 12 27 22 33 22 7 0 9 5 6
10 -3 6 2 10 11 10 10 0 14 3 11 7 -4 3 9 17 29 31 19 13 33 26 30 29 -3 3 7
19 22 35 56 60 62 68 62 78 0 6 3 10 8 10 14 0 54 69 46 81 -4 8 -3 9 4 5 6
-4 18 4 25 16 32 50 79 145 103 202 14 34 29 70 33 81 58 134 96 444 77 621
-14 138 -70 357 -98 389 -4 5 -8 15 -8 23 0 14 -79 182 -90 192 -4 3 -17 23
-30 45 -45 74 -123 170 -210 255 -88 88 -201 180 -220 180 -5 0 -10 4 -10 9 0
5 -12 14 -27 20 -16 6 -48 24 -73 40 -25 16 -51 30 -58 30 -7 1 -37 12 -65 25
-132 60 -289 102 -422 111 -49 3 -103 7 -120 9 -16 2 -78 -1 -137 -6z m-42
-97 c-4 -5 -1 -11 5 -13 13 -4 2 -35 -17 -42 -21 -8 -45 5 -42 23 2 8 14 21
28 28 30 15 33 16 26 4z m104 -6 c10 -12 10 -18 0 -30 -15 -19 -21 -19 -45 -1
-16 12 -17 16 -6 30 17 20 35 20 51 1z m95 -15 c0 -20 -5 -25 -25 -25 -28 0
-41 32 -18 46 23 15 43 5 43 -21z m99 14 c21 -21 20 -31 -4 -39 -26 -8 -62 3
-54 17 4 6 0 15 -7 20 -11 8 -10 9 3 4 10 -3 20 -1 23 4 9 14 21 12 39 -6z
m101 -10 c18 -19 4 -44 -25 -44 -29 0 -43 25 -25 44 9 9 20 16 25 16 5 0 16
-7 25 -16z m-491 -20 c9 -22 -1 -34 -30 -34 -17 0 -24 6 -24 18 0 10 3 22 7
25 12 13 41 7 47 -9z m591 -19 c0 -25 -37 -32 -54 -11 -18 21 -4 38 27 34 19
-2 27 -9 27 -23z m-668 -6 c2 -18 -25 -32 -63 -34 -14 -1 -20 4 -18 12 2 7 6
20 9 28 7 23 71 17 72 -6z m747 5 c9 -3 16 -16 16 -29 0 -16 -6 -22 -21 -21
-30 1 -49 33 -29 46 18 12 15 11 34 4z m-862 -19 c4 -5 8 -18 8 -27 0 -23 -49
-36 -61 -17 -12 19 -11 25 7 43 16 17 34 17 46 1z m965 -26 c17 -17 4 -39 -22
-39 -27 0 -39 14 -31 35 6 18 37 20 53 4z m-1047 -24 c0 -19 -28 -45 -43 -39
-8 2 -26 -7 -41 -21 -31 -28 -48 -31 -65 -11 -24 29 39 62 67 34 7 -7 12 -8
13 -2 1 5 2 18 3 29 0 11 11 22 26 25 29 8 40 4 40 -15z m1149 -14 c21 -13 5
-41 -23 -41 -28 0 -40 14 -32 35 6 17 34 19 55 6z m65 -37 c21 -8 21 -43 0
-51 -8 -3 -23 1 -31 10 -9 8 -13 23 -10 31 7 17 16 19 41 10z m-1389 -45 c9
-26 -10 -40 -45 -37 -43 5 -29 58 16 58 14 0 25 -8 29 -21z m1484 -28 c8 -14
7 -22 -4 -31 -13 -10 -19 -9 -35 5 -11 10 -20 24 -20 32 0 20 48 16 59 -6z
m-1566 -15 c3 3 3 -3 0 -15 -3 -11 -11 -25 -19 -31 -18 -15 -53 -3 -50 17 4
23 37 45 51 33 7 -5 14 -7 18 -4z m1654 -42 c3 -8 -2 -23 -11 -32 -20 -20 -49
-6 -54 27 -3 18 2 21 28 21 19 0 33 -6 37 -16z m-1734 -26 c3 -10 -3 -28 -13
-40 -15 -19 -20 -20 -34 -9 -20 17 -20 30 -1 51 20 22 42 21 48 -2z m1805 -51
c3 -23 0 -27 -22 -27 -14 0 -26 1 -26 3 0 1 -4 16 -9 33 -9 31 -8 31 23 25 24
-5 32 -12 34 -34z m-1877 -29 c-5 -26 -12 -34 -34 -36 -23 -3 -27 0 -27 23 0
17 7 29 23 35 39 16 45 12 38 -22z m1949 -51 c0 -15 4 -26 8 -23 5 3 19 -3 33
-12 26 -18 33 -62 11 -70 -18 -6 -52 27 -52 49 0 10 -13 25 -30 34 -31 16 -42
59 -17 68 22 7 47 -17 47 -46z m-2017 -9 c7 -21 -4 -38 -35 -54 -19 -10 -28
-21 -24 -30 9 -23 -10 -51 -37 -56 -22 -4 -24 -1 -24 34 0 21 2 36 5 33 3 -3
11 0 18 5 6 6 18 9 25 8 8 -2 13 8 12 29 0 18 4 30 8 27 5 -3 9 0 9 5 0 15 37
14 43 -1z m2125 -111 c6 -6 13 -24 17 -39 5 -21 2 -29 -15 -38 -17 -9 -21 -9
-15 0 4 7 -2 18 -14 26 -32 23 -26 59 10 63 4 1 11 -5 17 -12z m-2238 -59 c0
-16 -20 -48 -31 -48 -6 0 -17 6 -24 14 -12 11 -12 16 1 34 14 20 54 20 54 0z
m2288 -27 c7 -4 14 -23 14 -40 1 -20 7 -35 17 -39 29 -10 38 -35 22 -61 -7
-10 -13 -11 -31 -1 -18 9 -21 18 -16 41 4 20 2 29 -8 29 -23 0 -48 37 -41 59
7 22 21 26 43 12z m-2342 -62 c-3 -37 -25 -54 -45 -35 -18 19 -5 54 22 59 12
2 23 5 24 6 0 0 0 -13 -1 -30z m-46 -87 c0 -32 -16 -53 -36 -45 -17 6 -18 45
-2 61 21 21 38 14 38 -16z m2464 -22 c29 -11 36 -47 11 -56 -22 -9 -42 12 -42
41 0 29 -2 28 31 15z m-2498 -62 c12 -18 -5 -56 -23 -53 -10 2 -21 4 -25 4 -9
1 -10 33 -2 54 6 15 40 12 50 -5z m2549 -74 c0 -26 7 -49 18 -62 20 -22 15
-72 -7 -72 -20 0 -39 46 -32 74 3 14 3 26 -2 26 -14 0 -32 48 -25 65 3 9 15
15 27 13 18 -3 21 -10 21 -44z m-2577 -40 c2 -11 -4 -26 -12 -33 -9 -8 -13
-24 -10 -44 5 -38 -16 -70 -40 -61 -22 8 -20 42 10 152 6 21 49 10 52 -14z
m2619 -127 c8 -17 7 -28 -2 -40 -16 -22 -21 -21 -45 3 -11 11 -15 20 -10 20 6
0 10 9 10 20 0 28 34 26 47 -3z m-1822 -9 c23 -10 25 -16 25 -82 0 -54 6 -84
24 -122 37 -81 61 -80 30 0 -5 12 -2 15 11 9 15 -5 17 -2 12 18 -4 13 -10 35
-14 49 l-6 25 23 -20 23 -20 -6 32 -6 31 27 -14 c15 -8 42 -14 60 -14 30 0 32
-2 32 -37 0 -21 -10 -140 -22 -266 -19 -195 -24 -227 -38 -222 -49 19 -134 79
-191 136 -100 100 -138 194 -139 342 0 98 18 143 64 156 44 13 61 13 91 -1z
m-845 -22 c12 -15 11 -67 -2 -77 -4 -3 -4 -20 2 -38 5 -19 5 -42 0 -56 -5 -12
-6 -25 -4 -28 3 -3 7 -49 10 -102 2 -54 9 -106 15 -116 6 -13 6 -25 -1 -39
-11 -21 -30 -27 -30 -9 0 5 -4 8 -8 5 -5 -3 -9 15 -11 40 -1 25 -6 55 -10 67
-5 13 -4 32 2 45 7 16 7 29 -2 46 -14 26 -7 66 12 66 8 0 7 4 -2 9 -9 6 -14
24 -13 48 1 21 1 49 2 63 1 44 11 90 19 90 5 0 14 -7 21 -14z m2675 -60 c13
-19 14 -29 5 -45 -15 -29 -34 -26 -49 6 -9 20 -9 28 0 33 6 4 8 13 5 19 -15
23 24 10 39 -13z m-905 -13 c30 -21 50 -43 91 -101 38 -54 35 -89 -13 -169
-41 -68 -177 -199 -246 -236 -49 -27 -57 -28 -245 -34 l-194 -6 -6 99 c-13
187 -5 404 15 404 8 0 30 -22 68 -67 5 -7 10 -18 11 -25 1 -26 60 -61 107 -65
65 -5 125 28 181 97 60 74 90 98 102 79 5 -8 9 -24 9 -36 0 -40 28 -26 41 20
6 23 13 45 16 50 7 12 37 8 63 -10z m910 -93 c16 -30 3 -62 -23 -58 -25 3 -35
41 -17 64 17 19 27 18 40 -6z m0 -109 c0 -35 -27 -62 -41 -40 -18 29 -6 69 22
69 14 0 19 -7 19 -29z m-14 -95 c7 -29 -1 -46 -21 -46 -8 0 -17 5 -20 11 -11
16 4 59 20 59 8 0 17 -11 21 -24z m-11 -97 c3 -10 0 -29 -6 -41 -7 -13 -14
-36 -15 -51 -2 -16 -11 -38 -20 -49 -10 -11 -17 -32 -16 -48 2 -19 -4 -33 -18
-43 -16 -11 -20 -23 -17 -50 3 -29 0 -37 -18 -45 -43 -20 -63 33 -25 65 11 10
20 29 20 43 0 14 8 37 17 50 10 14 16 35 14 48 -1 13 5 32 14 42 10 11 14 30
12 53 -2 20 0 34 4 31 5 -3 12 1 15 10 7 19 31 10 39 -15z m-2617 -31 c14 -14
16 -57 4 -76 -12 -19 -45 22 -48 58 -2 32 21 41 44 18z m28 -102 c8 -8 14 -28
14 -44 0 -16 7 -35 15 -42 17 -14 20 -56 5 -65 -17 -11 -48 31 -43 58 4 18 -1
28 -16 36 -32 18 -28 62 7 70 2 1 10 -5 18 -13z m75 -176 c12 -7 19 -21 19
-38 0 -20 9 -35 29 -50 21 -15 29 -28 27 -47 -2 -16 2 -25 10 -25 17 0 48 -46
39 -60 -17 -27 -73 4 -62 34 3 8 -1 20 -9 26 -8 7 -14 9 -14 4 0 -21 -31 39
-34 64 -1 18 -7 27 -18 26 -18 -2 -35 47 -23 66 8 13 12 13 36 0z m2373 -56
c3 -8 -5 -25 -17 -38 -13 -13 -28 -38 -33 -57 -7 -23 -17 -35 -34 -39 -19 -4
-26 -14 -30 -40 -4 -29 -9 -35 -30 -35 -22 0 -25 4 -25 35 -1 34 1 36 27 32
23 -4 28 -1 28 18 0 30 18 60 35 60 15 0 16 3 19 38 3 44 46 62 60 26z m-2210
-195 c21 -17 24 -24 16 -40 -13 -23 -24 -24 -44 -3 -17 16 -22 64 -7 64 4 0
20 -9 35 -21z m2036 -49 c0 -30 -9 -39 -47 -44 -11 -2 -20 -14 -23 -31 -7 -36
-46 -53 -55 -24 -8 24 9 47 37 51 12 2 22 12 24 23 3 20 38 55 55 55 5 0 9
-14 9 -30z m-1972 -6 c-3 -3 5 -16 19 -30 13 -13 21 -29 18 -34 -3 -6 5 -10
18 -10 27 0 43 -15 49 -45 2 -14 11 -20 30 -20 15 1 25 -3 22 -6 -2 -4 0 -10
6 -14 5 -3 10 -15 10 -26 0 -33 -42 -20 -60 18 -11 24 -20 31 -33 27 -22 -7
-47 12 -47 37 0 11 -4 19 -10 19 -36 0 -60 18 -60 45 0 13 8 29 18 34 19 12
28 14 20 5z m1826 -130 c8 -20 -11 -44 -34 -44 -23 0 -34 28 -19 46 16 19 45
18 53 -2z m-74 -63 c0 -26 -25 -44 -50 -36 -37 12 -16 55 27 55 16 0 23 -6 23
-19z m-1509 -10 c3 -1 11 -12 17 -26 9 -19 19 -25 41 -25 36 0 63 -36 40 -51
-8 -5 -19 -9 -26 -9 -16 0 -43 28 -43 45 0 13 -23 15 -36 3 -9 -9 -40 23 -46
48 -5 20 5 23 53 15z m1420 -37 c14 -18 -4 -44 -32 -44 -22 0 -32 15 -25 38 7
22 41 26 57 6z m-81 -51 c0 -10 -5 -25 -10 -33 -8 -13 -13 -13 -31 -2 -11 8
-18 9 -15 3 4 -7 1 -8 -8 -5 -14 5 -13 9 1 30 18 29 63 33 63 7z m-1161 -15
c15 -9 17 -16 10 -30 -18 -33 -69 -16 -69 24 0 21 30 24 59 6z m1077 -30 c10
-12 14 -18 8 -15 -7 4 -17 0 -24 -8 -18 -21 -50 -19 -50 3 0 20 18 42 35 42 7
0 20 -10 31 -22z m-986 -14 c11 -12 10 -18 -3 -31 -13 -13 -19 -14 -31 -3 -22
18 -20 50 3 50 10 0 24 -7 31 -16z m883 -16 c7 -22 -4 -38 -28 -38 -13 0 -25
6 -28 13 -7 21 4 37 28 37 13 0 25 -6 28 -12z m-779 -23 c3 -9 -1 -18 -9 -21
-8 -4 -12 -11 -8 -18 4 -6 -4 -4 -17 5 -37 25 -38 49 -2 49 18 0 32 -6 36 -15z
m96 -25 c0 -5 -9 -14 -19 -19 -14 -8 -22 -7 -31 4 -19 22 5 48 31 34 10 -5 19
-14 19 -19z m587 14 c7 -20 -12 -33 -38 -27 -19 5 -25 24 -12 36 12 13 44 7
50 -9z m-493 -39 c-9 -23 -54 -19 -54 4 0 11 6 21 13 24 19 7 47 -12 41 -28z
m390 29 c13 -5 14 -9 5 -20 -15 -18 -59 -18 -59 -1 0 26 21 34 54 21z m-291
-23 c9 -10 8 -15 -8 -27 -17 -12 -21 -12 -33 0 -8 8 -12 21 -9 29 7 18 32 17
50 -2z m97 -12 c0 -13 -7 -19 -24 -19 -32 0 -44 20 -22 36 23 16 46 7 46 -17z
m98 8 c2 -9 -4 -20 -13 -23 -20 -8 -50 19 -40 36 10 17 49 8 53 -13z"/>
</g>
</svg>
